<svg width="1024" height="1024" viewBox="0 0 1024 1024" fill="none" xmlns="http://www.w3.org/2000/svg">
<g clip-path="url(#clip0_33_16)">
<mask id="path-1-inside-1_33_16" fill="white">
<path d="M992 576C992 584.487 988.629 592.626 982.627 598.627C976.626 604.629 968.487 608 960 608C951.513 608 943.374 604.629 937.373 598.627C931.371 592.626 928 584.487 928 576C927.884 474.193 887.389 376.588 815.4 304.6C743.412 232.611 645.807 192.116 544 192C538.4 192 532.8 192 527.28 192.4C445.431 196.741 368.362 232.3 311.943 291.755C255.523 351.211 224.049 430.036 224 512C224.074 579.873 251.069 644.944 299.063 692.938C347.056 740.931 412.127 767.926 480 768C526.662 767.947 571.397 749.387 604.392 716.392C637.387 683.397 655.947 638.662 656 592C656 558.052 642.514 525.495 618.51 501.49C594.505 477.486 561.948 464 528 464C519.513 464 511.374 467.371 505.373 473.373C499.371 479.374 496 487.513 496 496C496 504.487 499.371 512.626 505.373 518.627C511.374 524.629 519.513 528 528 528C544.974 528 561.252 534.743 573.255 546.745C585.257 558.748 592 575.026 592 592C592 621.704 580.2 650.192 559.196 671.196C538.192 692.2 509.704 704 480 704C429.095 703.947 380.289 683.702 344.294 647.706C308.298 611.711 288.053 562.905 288 512C288.074 444.127 315.069 379.056 363.063 331.063C411.056 283.069 476.127 256.074 544 256C628.84 256.095 710.178 289.84 770.169 349.831C830.16 409.822 863.905 491.16 864 576C863.894 669.324 826.775 758.795 760.785 824.785C694.795 890.775 605.324 927.894 512 928C410.193 927.884 312.588 887.389 240.6 815.4C168.611 743.412 128.116 645.807 128 544C128.116 433.706 171.982 327.962 249.972 249.972C327.962 171.982 433.706 128.116 544 128C662.778 128.127 776.655 175.368 860.643 259.357C944.632 343.345 991.873 457.222 992 576Z"/>
</mask>
<path d="M992 576C992 584.487 988.629 592.626 982.627 598.627C976.626 604.629 968.487 608 960 608C951.513 608 943.374 604.629 937.373 598.627C931.371 592.626 928 584.487 928 576C927.884 474.193 887.389 376.588 815.4 304.6C743.412 232.611 645.807 192.116 544 192C538.4 192 532.8 192 527.28 192.4C445.431 196.741 368.362 232.3 311.943 291.755C255.523 351.211 224.049 430.036 224 512C224.074 579.873 251.069 644.944 299.063 692.938C347.056 740.931 412.127 767.926 480 768C526.662 767.947 571.397 749.387 604.392 716.392C637.387 683.397 655.947 638.662 656 592C656 558.052 642.514 525.495 618.51 501.49C594.505 477.486 561.948 464 528 464C519.513 464 511.374 467.371 505.373 473.373C499.371 479.374 496 487.513 496 496C496 504.487 499.371 512.626 505.373 518.627C511.374 524.629 519.513 528 528 528C544.974 528 561.252 534.743 573.255 546.745C585.257 558.748 592 575.026 592 592C592 621.704 580.2 650.192 559.196 671.196C538.192 692.2 509.704 704 480 704C429.095 703.947 380.289 683.702 344.294 647.706C308.298 611.711 288.053 562.905 288 512C288.074 444.127 315.069 379.056 363.063 331.063C411.056 283.069 476.127 256.074 544 256C628.84 256.095 710.178 289.84 770.169 349.831C830.16 409.822 863.905 491.16 864 576C863.894 669.324 826.775 758.795 760.785 824.785C694.795 890.775 605.324 927.894 512 928C410.193 927.884 312.588 887.389 240.6 815.4C168.611 743.412 128.116 645.807 128 544C128.116 433.706 171.982 327.962 249.972 249.972C327.962 171.982 433.706 128.116 544 128C662.778 128.127 776.655 175.368 860.643 259.357C944.632 343.345 991.873 457.222 992 576Z" fill="black"/>
<path d="M992 576H1008V575.991L1008 575.983L992 576ZM928 576H944V575.991L944 575.982L928 576ZM544 192L544.018 176L544.009 176H544L544 192ZM527.28 192.4L528.127 208.378L528.282 208.369L528.436 208.358L527.28 192.4ZM224 512L208 511.99L208 512.004L208 512.017L224 512ZM480 768L479.983 784L480 784L480.018 784L480 768ZM656 592L672 592.018L672 592.009V592H656ZM528 464L528 448L528 464ZM592 592H576H592ZM480 704L479.983 720L479.992 720H480L480 704ZM288 512L272 511.983L272 512L272 512.017L288 512ZM544 256L544.018 240L544 240L543.983 240L544 256ZM864 576L880 576.018L880 576L880 575.982L864 576ZM512 928L511.982 944L512 944L512.018 944L512 928ZM128 544L112 543.983L112 544.001L112 544.018L128 544ZM544 128L544.017 112L544 112L543.983 112L544 128ZM976 576C976 580.244 974.314 584.313 971.314 587.314L993.941 609.941C1002.94 600.939 1008 588.73 1008 576H976ZM971.314 587.314C968.313 590.314 964.244 592 960 592V624C972.73 624 984.939 618.943 993.941 609.941L971.314 587.314ZM960 592C955.756 592 951.687 590.314 948.686 587.314L926.059 609.941C935.061 618.943 947.27 624 960 624V592ZM948.686 587.314C945.686 584.313 944 580.244 944 576H912C912 588.73 917.057 600.939 926.059 609.941L948.686 587.314ZM944 575.982C943.879 469.937 901.699 368.271 826.714 293.286L804.087 315.913C873.079 384.906 911.888 478.448 912 576.018L944 575.982ZM826.714 293.286C751.729 218.301 650.063 176.121 544.018 176L543.982 208C641.552 208.112 735.094 246.921 804.087 315.913L826.714 293.286ZM544 176C538.502 176 532.319 175.993 526.124 176.442L528.436 208.358C533.281 208.007 538.298 208 544 208L544 176ZM526.433 176.422C440.494 180.98 359.575 218.316 300.337 280.742L323.549 302.769C377.149 246.284 450.368 212.501 528.127 208.378L526.433 176.422ZM300.337 280.742C241.098 343.168 208.051 425.931 208 511.99L240 512.01C240.046 434.141 269.948 359.254 323.549 302.769L300.337 280.742ZM208 512.017C208.079 584.128 236.759 653.262 287.749 704.251L310.376 681.624C265.379 636.627 240.069 575.618 240 511.983L208 512.017ZM287.749 704.251C338.738 755.241 407.872 783.921 479.983 784L480.017 752C416.382 751.931 355.373 726.621 310.376 681.624L287.749 704.251ZM480.018 784C530.917 783.942 579.715 763.697 615.706 727.706L593.079 705.079C563.08 735.077 522.407 751.952 479.982 752L480.018 784ZM615.706 727.706C651.697 691.715 671.942 642.917 672 592.018L640 591.982C639.952 634.407 623.077 675.08 593.079 705.079L615.706 727.706ZM672 592C672 553.809 656.829 517.182 629.823 490.177L607.196 512.804C628.2 533.808 640 562.296 640 592H672ZM629.823 490.177C602.818 463.171 566.191 448 528 448V480C557.704 480 586.192 491.8 607.196 512.804L629.823 490.177ZM528 448C515.27 448 503.061 453.057 494.059 462.059L516.686 484.686C519.687 481.686 523.757 480 528 480L528 448ZM494.059 462.059C485.057 471.061 480 483.27 480 496H512C512 491.757 513.686 487.687 516.686 484.686L494.059 462.059ZM480 496C480 508.73 485.057 520.939 494.059 529.941L516.686 507.314C513.686 504.313 512 500.243 512 496H480ZM494.059 529.941C503.061 538.943 515.27 544 528 544V512C523.757 512 519.687 510.314 516.686 507.314L494.059 529.941ZM528 544C540.73 544 552.939 549.057 561.941 558.059L584.569 535.431C569.566 520.429 549.217 512 528 512V544ZM561.941 558.059C570.943 567.061 576 579.27 576 592H608C608 570.783 599.571 550.434 584.569 535.431L561.941 558.059ZM576 592C576 617.461 565.886 641.879 547.882 659.882L570.51 682.51C594.514 658.505 608 625.948 608 592H576ZM547.882 659.882C529.879 677.886 505.461 688 480 688L480 720C513.948 720 546.505 706.514 570.51 682.51L547.882 659.882ZM480.017 688C433.349 687.951 388.607 669.391 355.608 636.392L332.98 659.02C371.972 698.012 424.84 719.943 479.983 720L480.017 688ZM355.608 636.392C322.609 603.393 304.049 558.651 304 511.983L272 512.017C272.057 567.16 293.988 620.028 332.98 659.02L355.608 636.392ZM304 512.017C304.069 448.382 329.379 387.373 374.376 342.376L351.749 319.749C300.759 370.738 272.079 439.872 272 511.983L304 512.017ZM374.376 342.376C419.373 297.379 480.382 272.069 544.017 272L543.983 240C471.872 240.079 402.738 268.759 351.749 319.749L374.376 342.376ZM543.982 272C624.585 272.091 701.86 304.15 758.855 361.145L781.483 338.517C718.495 275.53 633.095 240.1 544.018 240L543.982 272ZM758.855 361.145C815.85 418.14 847.909 495.415 848 576.018L880 575.982C879.9 486.905 844.47 401.505 781.483 338.517L758.855 361.145ZM848 575.982C847.899 665.068 812.465 750.477 749.471 813.471L772.098 836.098C841.084 767.112 879.889 673.579 880 576.018L848 575.982ZM749.471 813.471C686.477 876.465 601.068 911.899 511.982 912L512.018 944C609.579 943.889 703.112 905.084 772.098 836.098L749.471 813.471ZM512.018 912C414.448 911.888 320.906 873.079 251.913 804.087L229.286 826.714C304.271 901.699 405.937 943.879 511.982 944L512.018 912ZM251.913 804.087C182.921 735.094 144.112 641.552 144 543.982L112 544.018C112.121 650.063 154.301 751.729 229.286 826.714L251.913 804.087ZM144 544.017C144.112 437.96 186.292 336.279 261.286 261.286L238.659 238.659C157.672 319.645 112.121 429.451 112 543.983L144 544.017ZM261.286 261.286C336.279 186.292 437.96 144.112 544.017 144L543.983 112C429.451 112.121 319.645 157.672 238.659 238.659L261.286 261.286ZM543.983 144C658.523 144.123 768.337 189.678 849.33 270.67L871.957 248.043C784.972 161.058 667.033 112.132 544.017 112L543.983 144ZM849.33 270.67C930.322 351.663 975.877 461.477 976 576.017L1008 575.983C1007.87 452.967 958.942 335.028 871.957 248.043L849.33 270.67Z" fill="white" mask="url(#path-1-inside-1_33_16)"/>
</g>
<defs>
<clipPath id="clip0_33_16">
<rect width="1024" height="1024" fill="white"/>
</clipPath>
</defs>
</svg>
